<svg width="282" height="66" viewBox="0 0 282 66" fill="none" xmlns="http://www.w3.org/2000/svg">
<path d="M148.345 39.9866C141.232 39.9866 135.596 45.5393 135.596 52.8527C135.596 60.1661 141.367 65.7189 148.345 65.7189C155.458 65.7189 161.095 60.0307 161.095 52.8527C161.095 45.5393 155.458 39.9866 148.345 39.9866ZM148.345 45.133C152.64 45.133 155.861 48.3834 155.861 52.8527C155.861 57.322 152.506 60.5724 148.345 60.5724C144.051 60.5724 140.83 57.322 140.83 52.8527C140.695 48.3834 144.051 45.133 148.345 45.133Z" fill="white"/>
<path d="M254.507 57.4576V45.6749H260.546V40.5284H254.507V33.6213L249.273 35.2465V40.5284H244.844V45.6749H249.273V57.4576C249.273 63.823 252.493 66.1253 260.546 65.0419V60.3017C256.52 60.5726 254.507 60.5726 254.507 57.4576Z" fill="white"/>
<path d="M281.616 60.166H269.672L281.616 45.6747V40.7991H263.096V45.6747H275.04L263.096 60.166V65.1771H281.616V60.166Z" fill="white"/>
<path d="M72.657 2.33736L78.0252 0.712158V34.9768H72.657V33.0807C70.2413 34.8414 67.1546 35.7894 63.7995 35.5185C57.8944 34.9768 52.9288 30.1012 52.392 24.0067C52.392 23.465 52.2578 23.0587 52.2578 22.5169C52.2578 22.1106 52.2578 21.7043 52.392 21.298C52.392 21.1626 52.392 21.1626 52.392 21.0272V20.8917V20.7563C52.392 20.4854 52.5262 20.2146 52.5262 19.9437C52.5262 19.8083 52.5262 19.6728 52.6604 19.6728V19.5374V19.402C52.6604 19.1311 52.7946 18.9957 52.7946 18.7248C52.7946 18.5894 52.9288 18.4539 52.9288 18.3185V18.1831C53.063 17.9122 53.063 17.7768 53.1972 17.5059C53.1972 17.3705 53.3315 17.235 53.3315 17.0996C53.3315 17.0996 53.3315 17.0996 53.3315 16.9642C53.4657 16.6933 53.5999 16.5579 53.5999 16.287C53.7341 16.1516 53.7341 16.0161 53.8683 15.8807C54.0025 15.7453 54.1367 15.4744 54.2709 15.339C54.4051 15.2035 54.5393 15.0681 54.6735 14.9327C54.8077 14.7972 54.9419 14.5264 55.0761 14.3909C55.2103 14.2555 55.3445 14.1201 55.4787 13.9846C55.6129 13.8492 55.7471 13.7138 56.0156 13.4429C56.1498 13.3075 56.284 13.172 56.4182 13.0366C56.5524 12.9012 56.8208 12.7657 56.955 12.6303C57.4918 12.3594 57.626 12.224 57.7602 12.0886C57.8944 11.9531 58.1628 11.8177 58.297 11.6823H58.4312C58.5655 11.5468 58.6997 11.5468 58.8339 11.4114C59.1023 11.276 59.2365 11.1405 59.5049 11.1405H59.6391C59.7733 11.1405 59.9075 11.0051 60.0417 11.0051C60.3101 10.8697 60.4443 10.8697 60.7127 10.7342H60.8469C60.9811 10.7342 61.1153 10.5988 61.2496 10.5988C61.518 10.4634 61.6522 10.4634 61.9206 10.4634H62.0548H62.189C62.3232 10.4634 62.4574 10.4634 62.5916 10.3279C62.86 10.3279 63.1284 10.1925 63.3968 10.1925H63.531C63.6652 10.1925 63.6652 10.1925 63.7995 10.1925C64.2021 10.1925 64.7389 10.0571 65.1415 10.0571C67.9598 10.0571 70.5097 11.0051 72.657 12.4949V2.33736ZM63.531 30.1012C68.3624 31.1847 72.657 27.3925 72.657 22.7878V22.6524C72.657 18.4539 69.3019 15.0681 65.1415 15.0681C64.8731 15.0681 64.6047 15.0681 64.3363 15.0681H64.2021C64.2021 15.0681 64.2021 15.0681 64.0679 15.0681C63.9337 15.0681 63.6652 15.0681 63.531 15.2035H63.3968C63.2626 15.2035 63.1284 15.339 62.9942 15.339C62.86 15.339 62.7258 15.4744 62.7258 15.4744C62.5916 15.4744 62.4574 15.6098 62.3232 15.6098C62.189 15.6098 62.189 15.7453 62.0548 15.7453C61.9206 15.8807 61.7864 15.8807 61.6522 16.0161C61.518 16.0161 61.518 16.1516 61.3838 16.1516C61.2496 16.287 61.1153 16.287 60.9811 16.4224C60.9811 16.4224 60.9811 16.4224 60.8469 16.4224L60.7127 16.5579C60.5785 16.6933 60.4443 16.8287 60.3101 16.9642C60.3101 16.9642 60.3101 16.9642 60.1759 17.0996C60.0417 17.235 59.7733 17.5059 59.6391 17.6413C59.5049 17.7768 59.3707 18.0476 59.2365 18.1831C59.2365 18.1831 59.2365 18.3185 59.1023 18.3185C59.1023 18.3185 59.1023 18.3185 59.1023 18.4539C58.9681 18.5894 58.9681 18.7248 58.8339 18.8602C58.8339 18.9957 58.6997 18.9957 58.6997 19.1311C58.5655 19.2665 58.5655 19.402 58.5655 19.5374C58.5655 19.6728 58.4312 19.6728 58.4312 19.8083C58.4312 19.9437 58.297 20.0791 58.297 20.2146C58.297 20.35 58.297 20.4854 58.1628 20.4854C58.1628 20.6209 58.1628 20.7563 58.0286 21.0272C58.0286 21.1626 58.0286 21.298 58.0286 21.298C58.0286 21.4335 58.0286 21.7043 58.0286 21.8398V21.9752C58.0286 22.1106 58.0286 22.1106 58.0286 22.2461C58.0286 22.7878 58.0286 23.3295 58.1628 24.0067C58.4312 27.2571 60.7127 29.5595 63.531 30.1012Z" fill="white"/>
<path d="M20.7186 10.5951V12.2203C18.7055 10.7305 16.0214 9.78247 13.3373 9.78247C5.8218 9.78247 -0.217423 16.4187 0.587807 24.1384C1.25883 30.0975 6.09021 34.9731 11.9952 35.6502C15.3504 35.9211 18.4371 34.9731 20.8528 33.2124V35.1085H26.221V10.5951H20.7186ZM20.7186 22.7841C20.7186 27.5242 16.424 31.1809 11.5926 30.0975C8.77432 29.5557 6.49283 27.2534 5.8218 24.2738C4.88237 19.3982 8.64011 15.0644 13.3373 15.0644C17.3634 15.0644 20.7186 18.4502 20.7186 22.7841Z" fill="white"/>
<path d="M175.861 40.259V45.9472C172.371 45.6764 168.345 47.3016 168.345 52.8543V65.1788H163.111V40.6653H168.345V44.7283C169.822 41.4779 172.774 40.259 175.861 40.259Z" fill="white"/>
<path d="M188.476 39.9866C181.363 39.9866 175.727 45.5393 175.727 52.8527C175.727 60.1661 181.497 65.7189 188.476 65.7189C195.589 65.7189 201.226 60.0307 201.226 52.8527C201.36 45.5393 195.723 39.9866 188.476 39.9866ZM188.476 45.133C192.771 45.133 195.992 48.3834 195.992 52.8527C195.992 57.322 192.636 60.5724 188.476 60.5724C184.181 60.5724 180.961 57.322 180.961 52.8527C180.961 48.3834 184.316 45.133 188.476 45.133Z" fill="white"/>
<path d="M235.853 40.6638L228.203 65.1773H223.103L218.004 48.6544L212.904 65.1773H207.804L200.154 40.6638H205.657L210.354 57.593L215.454 40.6638H220.419L225.519 57.593L230.216 40.6638H235.853Z" fill="white"/>
<path d="M242.832 40.6638H237.598V65.1773H242.832V40.6638Z" fill="white"/>
<path d="M92.7866 10.1917V15.8799C89.2973 15.609 85.2711 17.2342 85.2711 22.7869V35.1114H80.0371V10.598H85.2711V14.661C86.7474 11.4106 89.6999 10.1917 92.7866 10.1917Z" fill="white"/>
<path d="M124.326 39.9847C120.971 39.9847 118.421 41.2036 116.811 43.7769V30.369L112.516 27.9312C112.248 28.3375 111.98 28.7438 111.577 29.0146C110.235 30.0981 108.49 30.9107 106.209 30.9107C102.317 30.9107 99.2301 28.8792 98.4248 25.0871H117.885C117.885 24.4099 118.019 23.5973 118.019 22.9201C118.019 15.8776 113.053 10.054 105.806 10.054C98.2906 10.054 93.0566 15.6067 93.0566 22.9201C93.0566 30.2335 98.1564 35.7863 106.209 35.7863C108.222 35.7863 109.966 35.38 111.577 34.7028V65.1753H116.811V52.0383C116.811 47.0273 119.495 44.9958 122.984 44.9958C126.205 44.9958 128.353 47.0273 128.353 50.684V65.1753H133.587V50.0068C133.587 43.6414 129.695 39.9847 124.326 39.9847ZM105.672 14.7941C108.893 14.7941 111.845 16.5548 112.651 20.7532H98.4248C99.0959 17.0965 101.78 14.7941 105.672 14.7941Z" fill="white"/>
<path d="M138.549 27.7988C137.341 29.5595 135.194 30.7784 132.241 30.7784C128.349 30.7784 125.263 28.8823 124.457 24.9547H143.783C143.917 24.2776 143.917 23.465 143.917 22.7878C143.917 15.7453 138.952 9.92163 131.705 9.92163C124.055 9.92163 118.955 15.6098 118.955 22.7878C118.955 30.1012 124.189 35.654 132.107 35.654C136.804 35.654 140.562 33.6225 142.709 30.3721L138.549 27.7988ZM131.839 14.7972C135.06 14.7972 138.012 16.5579 138.817 20.7563H124.457C125.263 17.0996 127.947 14.7972 131.839 14.7972Z" fill="white"/>
<path d="M198.541 30.9112C201.493 30.9112 203.641 29.5568 204.848 27.9316L209.143 30.5049C206.861 33.8907 203.238 35.7868 198.541 35.7868C190.488 35.7868 185.389 30.234 185.389 22.9206C185.389 15.6072 190.623 10.0544 198.138 10.0544C205.385 10.0544 210.351 15.8781 210.351 22.9206C210.351 23.5978 210.217 24.4104 210.217 25.0875H190.891C191.562 28.8797 194.649 30.9112 198.541 30.9112ZM204.983 20.7537C204.312 16.5552 201.225 14.7946 198.004 14.7946C194.112 14.7946 191.428 17.097 190.623 20.7537H204.983Z" fill="white"/>
<path d="M237.598 35.1125H242.832V30.3723H237.598V35.1125Z" fill="white"/>
<path d="M40.9819 9.92163C37.6268 9.92163 35.0769 11.1405 33.4664 13.7138V10.8697V10.4634H28.2324V12.4949V34.9768H33.4664V21.8398C33.4664 16.8287 36.1505 14.7972 39.6399 14.7972C42.995 14.7972 45.0081 16.6933 45.0081 20.4854V34.9768H50.242V20.0791C50.3763 13.7138 46.4843 9.92163 40.9819 9.92163Z" fill="white"/>
<path d="M218.136 35.1122H212.902V10.5988H218.136V13.7138C219.747 11.1405 222.297 9.92163 225.652 9.92163C231.02 9.92163 234.912 13.5783 234.912 19.9437V34.9768H229.678V20.6209C229.678 16.9642 227.531 14.9327 224.31 14.9327C220.82 14.9327 218.136 16.9642 218.136 21.9752V35.1122Z" fill="white"/>
<path d="M150.897 17.3705C150.897 15.6098 152.508 14.7972 154.387 14.7972C156.266 14.7972 157.876 15.6098 158.816 17.235L163.379 14.9327C161.634 11.8177 158.413 9.92163 154.387 9.92163C149.421 9.92163 145.529 12.7657 145.529 17.3705C145.529 22.5169 149.958 23.7358 153.716 24.8193C156.4 25.6319 158.547 26.1736 158.547 28.0697C158.547 29.9658 156.802 30.7784 154.387 30.7784C152.105 30.7784 150.226 29.8303 149.287 28.0697L144.59 30.3721C146.2 33.6225 149.69 35.654 154.253 35.654C159.487 35.654 163.781 32.9453 163.781 28.0697C163.781 22.7878 159.218 21.4335 155.595 20.4854C153.179 19.8083 150.897 19.1311 150.897 17.3705Z" fill="white"/>
<path d="M174.651 14.7946C172.772 14.7946 171.162 15.6072 171.162 17.3678C171.162 19.2639 173.443 19.8056 175.993 20.6182C179.751 21.7017 184.18 22.9206 184.18 28.2025C184.18 33.0781 180.019 35.7868 174.651 35.7868C169.954 35.7868 166.599 33.7553 164.988 30.5049L169.685 28.2025C170.625 29.9631 172.37 30.9112 174.785 30.9112C177.067 30.9112 178.946 30.0986 178.946 28.2025C178.946 26.4419 176.664 25.7647 174.114 24.9521C170.356 23.8686 165.928 22.6497 165.928 17.5033C165.928 12.8985 169.82 10.0544 174.785 10.0544C178.677 10.0544 182.032 11.9505 183.777 15.0655L179.214 17.3678C178.14 15.6072 176.53 14.7946 174.651 14.7946Z" fill="white"/>
</svg>
