<svg width="70" height="85" viewBox="0 0 70 85" fill="none" xmlns="http://www.w3.org/2000/svg">
<g clip-path="url(#clip0_4108_65)">
<path d="M67.0811 29.0633C61.4775 32.5234 58.0164 38.455 58.0164 45.0457C58.0164 52.4602 62.4664 59.2157 69.2237 62.0167C67.9052 66.3007 65.9275 70.2551 63.4553 73.88C59.8294 78.9878 56.0386 84.2603 50.435 84.2603C44.8313 84.2603 43.1832 80.965 36.5907 80.965C30.163 80.965 27.8556 84.4251 22.5815 84.4251C17.3075 84.4251 13.6816 79.6468 9.56128 73.7152C4.12244 65.4768 0.990985 55.9203 0.826172 45.8695C0.826172 29.5576 11.3742 20.8249 21.9223 20.8249C27.5259 20.8249 32.1407 24.4498 35.6018 24.4498C38.8981 24.4498 44.1721 20.6602 50.435 20.6602C57.0275 20.4954 63.2904 23.626 67.0811 29.0633ZM47.4684 13.7399C50.2702 10.4446 51.7535 6.32542 51.9183 2.04147C51.9183 1.54717 51.9183 0.8881 51.7535 0.393799C46.9739 0.8881 42.524 3.19484 39.3925 6.81972C36.5907 9.9503 34.9425 13.9047 34.7777 18.1887C34.7777 18.683 34.7777 19.1773 34.9425 19.6716C35.2722 19.6716 35.7666 19.8363 36.0962 19.8363C40.5462 19.5068 44.6665 17.2001 47.4684 13.7399Z" fill="white"/>
</g>
<defs>
<clipPath id="clip0_4108_65">
<rect width="68.3975" height="84.0313" fill="white" transform="translate(0.826172 0.393799)"/>
</clipPath>
</defs>
</svg>
