<svg width="369" height="100" viewBox="0 0 369 100" fill="none" xmlns="http://www.w3.org/2000/svg">
<path d="M86.5106 58.1567H4V70.0197H86.5106V58.1567Z" fill="white"/>
<path d="M20.5021 28.7974H4V40.6603H20.5021V28.7974Z" fill="white"/>
<path d="M53.506 28.7974H37.0039V40.6603H53.506V28.7974Z" fill="white"/>
<path d="M86.5099 28.7974H70.0078V40.6603H86.5099V28.7974Z" fill="white"/>
<path d="M43.8304 43.4443H4V55.3073H43.8304V43.4443Z" fill="white"/>
<path d="M86.514 43.4443H46.6836V55.3073H86.514V43.4443Z" fill="white"/>
<path d="M148.938 68.6277C154.306 68.4289 155.565 67.4348 155.565 65.1815V33.8341C155.565 31.5808 154.372 30.5204 148.938 30.2553V28.9961H168.024V30.3216C162.656 30.5204 161.397 31.5808 161.397 33.9003V65.1815C161.397 67.4348 162.59 68.4952 168.024 68.6277V70.0194H148.938V68.6277Z" fill="white"/>
<path d="M180.882 68.6298C186.251 68.431 187.907 67.4369 187.907 65.1836V30.655H184.859C179.756 30.655 177.171 30.655 174.189 38.1439L172.863 38.0114L173.195 29.0645H208.187L208.518 38.0114L207.193 38.1439C204.542 31.1852 201.891 30.655 196.656 30.655H193.541V65.1836C193.541 67.4369 195.197 68.4972 200.566 68.6298V70.0215H180.816L180.882 68.6298Z" fill="white"/>
<path d="M289.637 68.6277C294.939 68.4289 296.264 67.4348 296.264 65.1815V33.8341C296.264 31.5808 294.939 30.5204 289.637 30.2553V28.9961H322.972L323.171 37.943H321.846C319.327 30.6529 317.207 30.5867 310.314 30.5867H301.964V47.7515H305.675C310.447 47.7515 312.567 46.6249 314.158 40.1963H315.351V57.0298H314.158C312.567 50.535 310.447 49.5409 305.675 49.5409H301.964V67.965H310.248C318.399 67.965 320.984 68.1638 323.768 60.4098H325.093L324.762 69.9532H289.637V68.6277Z" fill="white"/>
<path d="M331.324 68.6277C336.56 68.4289 337.952 67.4348 337.952 65.1815V33.8341C337.952 31.5808 336.626 30.5204 331.324 30.2553V28.9961H349.947V30.3216C344.579 30.5204 343.651 31.5145 343.651 33.9003V68.0312H349.748C357.767 68.0312 360.485 65.6454 363.467 56.7647H364.726L364.262 70.0194H331.324V68.6277Z" fill="white"/>
<path d="M264.522 28.9961H248.086V30.3878C252.46 30.6529 253.653 31.7796 253.653 33.8341V65.1815C253.653 67.3022 252.46 68.2963 248.086 68.5614V70.0194H265.118C280.361 70.0194 286.989 59.747 286.989 48.7456C286.989 37.2803 279.367 28.9961 264.522 28.9961ZM263.925 68.0312H259.485V30.6529H263.925C274.927 30.6529 280.427 35.4246 280.427 49.1433C280.427 62.8619 276.849 68.0312 263.925 68.0312Z" fill="white"/>
<path d="M240.464 63.1265L227.673 28.0015H225.619L213.027 59.5477C210.575 65.5123 208.918 67.7656 204.875 68.7597V70.0189H218.527V68.7597C213.159 67.8319 212.563 66.5064 215.081 59.8791L217.202 54.3784H231.318L234.566 63.8555C235.758 67.2354 234.897 68.4946 229.396 68.7597V70.0189H246.495V68.5609C242.717 67.8982 241.789 66.5727 240.464 63.1265ZM217.798 52.7215L224.492 35.5567H224.823L230.788 52.7215H217.798Z" fill="white"/>
<path d="M130.053 29.6602C122.895 29.6602 116.202 35.9562 116.202 49.8073C116.202 62.9295 124.221 68.4302 131.18 68.4302C133.3 68.4302 135.355 67.9 137.277 66.8396C139.199 65.8455 140.856 64.3875 142.115 62.5981C142.976 61.3389 143.639 60.0135 144.103 58.5555L145.428 58.9531C144.766 61.1401 143.772 63.2609 142.446 65.1165C141.121 66.9059 139.398 68.2977 137.409 69.2918C136.813 69.5569 136.216 69.822 135.62 70.0208C134.957 70.2859 134.295 70.4847 133.566 70.6172C132.306 70.8823 130.981 71.0812 129.655 71.0812C117.925 71.0812 109.707 62.6644 109.707 50.0062C109.707 37.3479 118.853 28.0033 130.716 28.0033C134.295 27.937 137.873 28.8649 140.988 30.5217H143.109L143.507 34.4981L144.368 41.3906H143.109C140.392 33.9017 136.15 29.6602 130.053 29.6602Z" fill="white"/>
</svg>
