<svg width="226" height="80" viewBox="0 0 226 80" fill="none" xmlns="http://www.w3.org/2000/svg">
<path d="M37.0394 79.2152C21.9153 78.2863 8.08326 69.0142 3.21079 54.3419C-4.81148 30.1991 12.6348 6.09429 37.8839 5.71851V16.2192C15.8142 16.7006 3.5739 42.0974 18.09 59.2566C29.4141 72.6411 51.3444 71.0662 60.3969 56.0857C60.8867 55.2708 64.7796 47.7214 62.5376 47.7214H38.5172L37.8839 47.0923V37.2207H69.2805C72.0503 37.2207 74.9214 41.9074 74.9256 44.5252C74.9679 62.8244 56.8375 78.6367 39.1463 79.2194H37.0394V79.2152Z" fill="white"/>
<path d="M225.84 43.9371V47.716H220.782V76.9044C219.781 78.0571 217.957 77.3773 216.568 77.5335V47.716H211.51V43.9329H225.84V43.9371Z" fill="white"/>
<path d="M72.859 24.6264C65.7699 36.5205 47.3947 33.9069 43.9873 20.421C39.5666 2.92826 62.9579 -6.87157 72.8506 8.02873L66.3146 12.0103C62.941 9.21519 59.9052 7.34051 55.5563 9.68386C47.3145 14.1257 52.6387 26.8051 62.1345 23.7988C64.119 23.1697 64.5666 21.6497 66.3188 20.8306L72.859 24.6264Z" fill="white"/>
<path d="M102.786 23.7745V19.5734H117.327C121.313 19.5734 119.341 27.3888 118.189 29.6688C111.783 42.3271 92.6186 42.04 86.8342 28.9637C79.099 11.4709 100.742 -3.80095 114.557 9.3429L112.21 11.9691C101.295 2.78153 85.3057 12.708 90.1275 26.5148C93.632 36.5468 107.591 38.0837 113.667 29.3648C114.173 28.6386 116.821 23.7703 115.216 23.7703H102.786V23.7745Z" fill="white"/>
<path d="M136.498 4.88013L140.509 5.29391L146.408 23.7831C147.337 24.0871 147.071 22.8331 147.054 22.2969C147.016 21.0978 146.636 20.0802 146.598 18.9698C146.437 14.2873 146.754 9.5626 146.615 4.88013H150.41V38.4808L146.399 38.067L140.294 19.1598V38.4808H136.502V4.88013H136.498Z" fill="white"/>
<path d="M182.853 38.4808H178.64V24.4122C177.179 23.1245 174.612 24.0449 172.741 23.7831V38.4808C171.352 38.3245 169.528 39.0043 168.527 37.8516V5.50924L169.161 4.88013H178.011C178.758 4.88013 180.839 6.29458 181.393 6.96592C183.331 9.31771 183.36 17.3991 182.326 20.0971C182.089 20.7178 181.274 21.1738 181.211 21.5242C181.127 21.9718 182.858 24.0533 182.858 24.826V38.4765L182.853 38.4808ZM178.64 9.08126C178.64 8.77726 173.303 8.08481 172.741 9.29237V19.582H178.64V9.08126Z" fill="white"/>
<path d="M93.2401 70.246C99.223 76.212 109.386 74.8398 113.946 67.8942L116.931 69.9589C109.909 82.3343 90.2929 79.6658 86.1593 66.1715C80.1426 46.5212 105.932 34.5638 117.117 51.267L114.305 53.1121C112.439 51.9046 111.408 50.0932 109.331 48.9617C95.4905 41.4081 82.2749 59.3104 93.2401 70.246Z" fill="white"/>
<path d="M200.134 38.4807H196.343V23.7831H190.444V38.4807H186.23V10.1325C186.23 9.94675 187.324 7.62452 187.565 7.2614C189.984 3.57538 196.094 3.44449 198.813 6.83495C199.096 7.18962 200.139 9.03052 200.139 9.2923V38.4807H200.134ZM196.343 19.5819V9.7103C196.343 8.20296 190.444 7.38385 190.444 9.7103V19.5819H196.343Z" fill="white"/>
<path d="M133.545 77.5348H129.754V63.0441C129.01 62.0265 124.07 62.1954 123.614 62.8245L123.792 76.8466L123.158 77.4757L119.633 77.5348V48.7644C119.633 48.0593 121.33 45.3951 122.014 44.8378C124.522 42.7815 129.006 42.7857 131.409 45.0109C131.89 45.4584 133.541 48.0087 133.541 48.3464V77.5348H133.545ZM129.754 58.6361V49.1867C129.754 46.666 123.855 46.8307 123.855 48.3464V58.6361H129.754Z" fill="white"/>
<path d="M165.152 77.5361H161.361V63.0454C159.9 61.7576 157.333 62.6781 155.462 62.4163V77.5361L151.937 77.477L151.244 76.4848L151.438 48.9558C152.426 43.2008 160.292 41.2628 163.89 45.8228C164.122 46.1184 165.152 47.7989 165.152 47.9213V77.5277V77.5361ZM155.458 48.3477V58.6374H161.356V48.7657C161.356 46.8911 155.922 46.6842 155.458 48.3477Z" fill="white"/>
<path d="M209.826 54.4359H206.035V47.9252C204.73 46.8443 201.787 47.0976 200.318 47.6888C200.035 48.0941 199.955 56.6188 200.132 57.5857C200.221 58.0628 200.276 58.4344 200.825 58.5779C205.11 58.1853 209.277 59.5153 209.826 64.3075C210.046 66.2202 210.059 71.5782 209.645 73.3685C208.615 77.7934 202.454 79.1994 198.891 76.8898C195.327 74.5803 195.863 70.6367 195.918 67.0393H200.136V73.55C201.044 74.576 205.224 74.576 205.828 73.3431C206.17 72.6465 206.225 64.9577 206.026 63.9022C205.604 61.6602 202.889 62.6186 201.226 62.3864C195.559 61.5884 195.475 54.457 195.927 50.0363C196.45 44.8894 200.618 41.9972 205.613 43.7367C207.217 44.2941 209.826 46.6374 209.826 48.3517V54.4401V54.4359Z" fill="white"/>
<path d="M165.156 4.88013V8.65904H159.046L158.413 9.29237V19.582H165.156V23.7789H158.413V34.6976H165.156V38.4808H154.199V5.50924L154.833 4.88013H165.156Z" fill="white"/>
<path d="M183.277 43.9392V58.0077C184.535 59.2406 186.798 58.4173 188.466 58.6537C188.744 58.5693 189.175 57.7037 189.175 57.5897V43.9392H192.967V59.2702C192.967 61.3771 189.348 62.2891 187.908 63.0491V77.5398H184.117V63.0491C182.533 62.3904 179.059 60.9971 179.059 58.848V43.9392H183.272H183.277Z" fill="white"/>
<path d="M133.125 4.88013V8.65904H126.593L125.96 9.28815V19.5778H132.491C133.484 20.4813 133.488 22.8753 132.491 23.7789H125.96V34.0685L126.593 34.6976H133.125V38.4765H122.168V4.88013H133.125Z" fill="white"/>
<path d="M149.562 43.9392V47.7223H144.504V77.5398C143.115 77.3836 141.291 78.0634 140.29 76.9107V47.7223H135.654V43.9434H149.562V43.9392Z" fill="white"/>
<path d="M173.159 43.9392V73.3387H179.902V77.5398C177.018 77.5652 172.847 77.8734 170.664 75.6145C170.242 75.1796 168.945 72.68 168.945 72.2874V43.9392H173.159Z" fill="white"/>
<path d="M214.884 34.6976V38.4765H208.775C207.141 38.4765 203.928 35.2803 203.928 33.6463V4.88013L207.453 4.93924L208.146 5.93147L208.125 33.2536L208.779 34.7019H214.889L214.884 34.6976Z" fill="white"/>
</svg>
