<svg width="142" height="61" viewBox="0 0 142 61" fill="none" xmlns="http://www.w3.org/2000/svg">
<path d="M32.7353 6.07669C27.337 6.07669 24.006 10.2648 24.006 17.4024C24.006 24.4809 27.337 28.7281 32.7353 28.7281C38.1337 28.7281 41.4646 24.54 41.4646 17.4024C41.4646 10.2648 38.1912 6.07669 32.7353 6.07669ZM32.7353 27.4304C30.6679 27.4304 30.0362 25.1298 30.0362 17.3433C30.0362 9.55698 30.6679 7.25645 32.7353 7.25645C34.8028 7.25645 35.4345 9.61596 35.4345 17.4024C35.4345 25.1298 34.8028 27.4304 32.7353 27.4304ZM72.5343 38.1072C70.2372 38.1072 68.5716 38.992 67.5953 40.5257V32.7392H61.7949V47.1913C61.7949 55.0368 57.4302 58.7529 53.4675 58.7529C50.5386 58.7529 49.3327 56.6885 49.3327 49.6098C49.3327 42.5313 50.0793 39.3459 52.4339 39.3459C53.9844 39.3459 55.3054 40.8796 56.6263 44.4189H58.0619V39.169C56.3391 38.4611 54.2141 38.1072 52.5487 38.1072C46.6335 38.1072 43.3025 42.4724 43.3025 49.6098C43.3025 56.6885 46.6335 60.6996 52.2615 60.6996C56.9135 60.6996 60.2444 58.1631 61.7949 53.857V60.1687H67.5953V44.124C67.5953 41.6465 68.9162 40.4077 70.2945 40.4077C71.6155 40.4077 72.0749 41.5285 72.0749 43.2391V60.2277H77.8753V44.36C77.8753 39.9357 75.7504 38.1072 72.5343 38.1072ZM45.0254 0.708777V28.1972H50.8258V0.708777H45.0254ZM65.93 0.708777V8.20026C65.4131 6.90252 64.1496 6.07669 62.1395 6.07669C57.6026 6.07669 54.5588 10.2648 54.5588 17.2844C54.5588 24.4809 57.258 28.6691 61.9098 28.6691C64.0921 28.6691 65.5853 27.6074 66.2745 25.4248V28.1381H71.6729V0.708777H65.93ZM63.0584 26.9585C61.2207 26.9585 60.5889 25.0709 60.5889 17.2254C60.5889 9.85192 61.2207 7.66937 63.1733 7.66937C65.2982 7.66937 66.0448 10.2648 66.0448 17.2254C66.0448 24.245 65.0685 26.9585 63.0584 26.9585ZM96.7124 6.07669C94.1281 6.07669 92.2329 7.49239 91.4288 9.439C90.6248 7.19746 89.0168 6.07669 86.7195 6.07669C84.25 6.07669 82.4698 7.19746 81.6083 9.02609V6.60758H76.2098V28.1972H81.9529V12.0935C81.9529 9.61596 83.1015 8.37722 84.5372 8.37722C85.7432 8.37722 86.2601 9.38002 86.2601 11.0907V28.1972H92.0605V12.0935C92.0605 9.61596 93.2092 8.37722 94.6448 8.37722C95.851 8.37722 96.3677 9.38002 96.3677 11.0907V28.1972H102.168V12.3294C102.168 7.90532 99.9859 6.07669 96.7124 6.07669ZM91.9457 47.5453L88.6147 45.4807C86.3749 44.124 85.571 43.2981 85.571 41.8824C85.571 40.2898 86.6621 39.287 88.4999 39.287C90.6822 39.287 92.2902 40.7616 93.2667 44.36H94.7023V38.815C92.8646 38.4022 90.797 38.0481 88.9593 38.0481C84.3075 38.0481 81.4935 40.4077 81.4935 44.242C81.4935 46.8964 82.9292 48.725 85.858 50.5537L88.6147 52.2642C90.912 53.68 91.716 54.6827 91.716 56.2755C91.716 58.3401 90.4525 59.4018 88.2702 59.4018C85.571 59.4018 84.0203 57.6322 82.9867 53.739H81.5508V59.8148C83.6758 60.4046 85.9155 60.6405 87.7533 60.6405C93.0368 60.6405 96.0807 58.104 96.0807 53.857C96.0232 50.9666 94.6448 49.197 91.9457 47.5453ZM114.056 6.07669C111.874 6.07669 109.29 6.48959 106.877 7.25645V12.3294H108.313C109.519 9.14406 111.127 7.37443 113.424 7.37443C114.86 7.37443 115.435 8.08228 115.435 9.73394V12.5064C115.435 13.8631 115.09 14.276 113.597 14.8069L112.046 15.3378C107.452 16.9305 105.384 18.995 105.384 22.7113C105.384 26.6635 107.682 28.7281 111.012 28.7281C113.367 28.7281 115.377 27.6663 116.009 25.6017V28.1972H121.292V12.5064C121.235 8.25924 118.765 6.07669 114.056 6.07669ZM115.435 22.4163C115.435 25.2478 114.516 26.5455 113.08 26.5455C111.702 26.5455 111.242 25.4248 111.242 22.5344V21.9444C111.242 18.5822 111.931 17.2254 113.826 16.2226L115.435 15.3968V22.4163ZM136.339 6.07669C133.812 6.07669 131.974 7.19746 131.056 9.02609V6.60758H125.6V28.1972H131.4V12.0345C131.4 9.55698 132.721 8.31822 134.099 8.31822C135.42 8.31822 135.88 9.439 135.88 11.1497V28.1381H141.68V12.3294C141.68 7.90532 139.555 6.07669 136.339 6.07669ZM21.5366 50.9666C21.5366 56.5114 17.6312 60.2277 11.3714 60.2277H2.18259V50.3766H3.56091C4.82437 56.2164 7.17901 58.812 11.1417 58.812C14.3578 58.812 16.0807 57.0424 16.0807 54.152C16.0807 51.0846 14.2429 49.6689 11.5437 48.0761L7.46615 45.5987C4.02035 43.534 2.06773 40.9976 2.06773 37.4583C2.06773 33.5061 4.30751 30.9696 7.92559 29.9078C2.81433 28.4922 0.976562 23.7141 0.976562 15.2198C0.976562 5.5458 4.8818 0.118896 12.8646 0.118896H20.2731V8.25924H18.8372C17.1144 3.0683 15.6212 1.47562 12.922 1.47562C8.95934 1.47562 7.86817 5.84074 7.86817 15.4558C7.86817 26.5455 8.84448 29.023 11.7734 29.023C14.0132 29.023 15.1043 27.5483 15.1043 24.068V19.8209C15.1043 17.2254 14.3003 16.2816 11.6585 15.8687V14.512H20.5028V37.6942H19.1819C17.1718 31.8544 14.5875 30.5567 11.716 30.5567C8.9019 30.5567 7.17901 31.9135 7.17901 34.5679C7.17901 37.0453 8.61475 38.2252 11.314 39.8768L15.7361 42.5903C19.2393 44.8318 21.5366 46.8964 21.5366 50.9666ZM32.678 38.1072C30.4956 38.1072 27.9112 38.5202 25.4992 39.287V44.36H26.9349C28.1409 41.1746 29.749 39.405 32.0463 39.405C33.4819 39.405 34.0562 40.1128 34.0562 41.7644V44.4779C34.0562 45.8346 33.7116 46.2476 32.2184 46.7785L30.6679 47.3092C26.0735 48.902 24.006 50.9666 24.006 54.6827C24.006 58.635 26.3032 60.6996 29.6341 60.6996C31.9887 60.6996 33.9988 59.6377 34.6306 57.5733V60.1687H39.8566V44.5959C39.8566 40.2898 37.3298 38.1072 32.678 38.1072ZM34.0562 54.4468C34.0562 57.2783 33.1374 58.5761 31.7015 58.5761C30.3234 58.5761 29.8638 57.4553 29.8638 54.5648V53.975C29.8638 50.6126 30.5531 49.2559 32.4481 48.2531L34.0562 47.4272V54.4468Z" fill="white" fill-opacity="0.95"/>
</svg>
