<svg width="217" height="100" viewBox="0 0 217 100" fill="none" xmlns="http://www.w3.org/2000/svg">
<path d="M201.818 74.8554L188.615 56.2312H163.933V74.8554H155.849V26H194.339C204.587 26 210.782 31.9405 210.782 41.3875C210.782 50.0209 205.393 54.615 198.109 55.8244L211.193 74.8554H201.818ZM202.499 41.3875C202.499 35.9821 199.189 33.3544 192.392 33.3544H163.933V48.8724H193.12C199.189 48.8724 202.499 46.173 202.499 41.3875ZM127.987 74.8554L104.534 49.1465L89.8363 60.0095V74.8554H81.7398V26H89.8363V51.3021L124.015 26H135.675L110.732 44.4894L138.376 74.8554H127.987ZM52.2432 74.8554L28.788 49.1465L14.0965 60.0095V74.8554H6V26H14.0965V51.3021L48.2666 26H59.9312L34.9875 44.4894L62.6322 74.8554H52.2432Z" fill="white"/>
</svg>
