<svg width="272" height="100" viewBox="0 0 272 100" fill="none" xmlns="http://www.w3.org/2000/svg">
<path d="M101.168 25.4995H111.098L127.982 56.042L144.866 25.4995H154.581V75.6866H146.48V37.222L131.675 63.857H124.075L109.27 37.222V75.6866H101.168V25.4995Z" fill="white"/>
<path d="M180.717 76.5843C176.964 76.5843 173.666 75.7539 170.823 74.0929C167.979 72.4319 165.762 70.1317 164.173 67.1922C162.583 64.2525 161.789 60.8828 161.789 57.0831C161.789 53.2356 162.566 49.83 164.119 46.8664C165.673 43.9034 167.829 41.5851 170.59 39.9116C173.35 38.2392 176.523 37.4028 180.107 37.4023C183.668 37.4023 186.733 38.2447 189.302 39.9295C191.871 41.6147 193.849 43.9748 195.235 47.0097C196.621 50.045 197.314 53.6059 197.314 57.6924V59.9147H169.819C170.321 62.9743 171.558 65.3821 173.529 67.1381C175.501 68.8948 177.992 69.773 181.003 69.7729C183.417 69.7729 185.496 69.4144 187.241 68.6975C188.985 67.9805 190.622 66.8932 192.152 65.4355L196.454 70.705C192.176 74.6249 186.93 76.5846 180.717 76.5843ZM186.632 46.8123C184.935 45.08 182.712 44.2136 179.964 44.2133C177.287 44.2133 175.047 45.0977 173.243 46.8664C171.438 48.6349 170.297 51.0128 169.819 54.0001H189.535C189.296 50.941 188.328 48.545 186.632 46.8123Z" fill="white"/>
<path d="M207.136 44.9275H199.68V38.2955H207.136V27.3262H214.951V38.2955H226.279V44.9275H214.951V61.74C214.951 64.5359 215.429 66.5314 216.385 67.7264C217.34 68.9218 218.977 69.5193 221.296 69.5188C222.323 69.5188 223.195 69.477 223.913 69.3934C224.63 69.31 225.419 69.1965 226.279 69.0527V75.6128C225.297 75.8968 224.297 76.1125 223.286 76.2584C222.128 76.4287 220.96 76.5125 219.79 76.5092C211.354 76.5092 207.136 71.8969 207.136 62.6721V44.9275Z" fill="white"/>
<path d="M266.999 75.6879H259.327V70.4541C257.965 72.414 256.233 73.9256 254.13 74.9888C252.026 76.0519 249.636 76.5837 246.96 76.5843C243.662 76.5843 240.74 75.7418 238.195 74.0567C235.65 72.372 233.648 70.0539 232.191 67.1024C230.733 64.1509 230.004 60.7752 230.004 56.9755C230.004 53.1518 230.745 49.77 232.227 46.8302C233.708 43.891 235.757 41.5848 238.374 39.9117C240.991 38.2392 243.997 37.4028 247.39 37.4023C249.947 37.4023 252.241 37.8983 254.273 38.8903C256.277 39.8596 258.012 41.3059 259.327 43.1022V38.2988H266.999V75.6879ZM259.184 51.3832C258.347 49.2562 257.027 47.5772 255.223 46.3463C253.418 45.1156 251.333 44.5003 248.967 44.5003C245.621 44.5003 242.957 45.6235 240.973 47.8699C238.99 50.1164 237.998 53.1516 237.998 56.9755C237.998 60.8234 238.954 63.8705 240.866 66.1167C242.778 68.3633 245.371 69.4864 248.645 69.4863C251.058 69.4863 253.209 68.8649 255.097 67.622C256.985 66.38 258.347 64.7071 259.184 62.6034V51.3832Z" fill="white"/>
<path d="M62.0209 23.8018C55.5062 23.8018 50.4136 28.7085 45.8035 34.9416C39.4685 26.8754 34.1704 23.8018 27.8302 23.8018C14.904 23.8018 5 40.624 5 58.4294C5 69.5714 10.3904 76.5989 19.4191 76.5989C25.9174 76.5989 30.5909 73.5353 38.8994 59.012C38.8994 59.012 42.3627 52.8959 44.7454 48.6828C45.5803 50.0308 46.4596 51.4834 47.3833 53.0404L51.2794 59.5946C58.8688 72.2948 63.0974 76.5989 70.7597 76.5989C79.5555 76.5989 84.4505 69.4753 84.4505 58.1017C84.4506 39.4588 74.3232 23.8018 62.0209 23.8018ZM32.5637 55.0795C25.8276 65.6389 23.4972 68.0057 19.7468 68.0057C15.8871 68.0057 13.5932 64.6173 13.5932 58.575C13.5932 45.6488 20.0381 32.4314 27.721 32.4314C31.8815 32.4314 35.3583 34.8342 40.6838 42.4582C35.627 50.2147 32.5637 55.0795 32.5637 55.0795ZM57.987 53.7502L53.3288 45.9812C52.0681 43.931 50.8566 42.0438 49.6943 40.3197C53.8927 33.8397 57.3559 30.6108 61.4747 30.6108C70.0315 30.6108 76.8769 43.2093 76.8769 58.6843C76.8769 64.583 74.9449 68.0057 70.9418 68.0057C67.105 68.0057 65.2721 65.4718 57.987 53.7502Z" fill="white"/>
</svg>
