<svg width="282" height="72" viewBox="0 0 282 72" fill="none" xmlns="http://www.w3.org/2000/svg">
<g clip-path="url(#clip0_4111_192)">
<path d="M21.0663 7.41869C18.3061 4.10423 15.9293 0.737987 15.4437 0.0388414C15.3926 -0.0129471 15.3159 -0.0129471 15.2648 0.0388414C14.7792 0.737987 12.4024 4.10423 9.6422 7.41869C-14.0493 37.9997 13.3736 58.6375 13.3736 58.6375L13.6036 58.7929C13.808 61.9778 14.3192 66.5611 14.3192 66.5611H15.3415H16.3638C16.3638 66.5611 16.8749 62.0037 17.0794 58.7929L17.3094 58.6116C17.3349 58.6375 44.7579 37.9997 21.0663 7.41869ZM15.3415 58.1713C15.3415 58.1713 14.1147 57.1097 13.7825 56.5661V56.514L15.2648 23.2142C15.2648 23.1106 15.4182 23.1106 15.4182 23.2142L16.9005 56.514V56.5661C16.5682 57.1097 15.3415 58.1713 15.3415 58.1713Z" fill="white"/>
<path d="M66.6616 51.3761L55.2342 23.1283L55.2086 23.0503H46.3177V24.9491H47.7525C48.188 24.9491 48.598 25.1311 48.9056 25.4433C49.2129 25.7554 49.3667 26.1717 49.3667 26.6138L49.1106 55.0437C49.1106 55.9279 48.3933 56.6562 47.5219 56.6823L46.0615 56.7082V58.581H54.7219V56.7082L53.825 56.6823C52.9539 56.6562 52.2364 55.9279 52.2364 55.0437V28.2524L64.6889 58.581C64.868 59.0231 65.278 59.3093 65.7393 59.3093C66.2005 59.3093 66.6104 59.0231 66.7898 58.581L78.9603 28.9287L79.1397 55.0437C79.1397 55.954 78.4222 56.6823 77.5255 56.7082H76.603V58.581H86.7494V56.7082H85.3657C84.4946 56.7082 83.7771 55.954 83.7515 55.0696L83.6747 26.6397C83.6747 25.7294 84.392 25.0011 85.2634 24.9751L86.7494 24.9491V23.0503H78.089L66.6616 51.3761Z" fill="white"/>
<path d="M146.34 56.2133C146.058 55.9269 145.904 55.536 145.904 55.067V41.1011C145.904 38.4436 145.133 36.3589 143.591 34.8739C142.076 33.3885 139.969 32.6331 137.349 32.6331C133.676 32.6331 130.773 34.1443 128.743 37.1147C128.718 37.1667 128.641 37.1929 128.564 37.1929C128.487 37.1929 128.435 37.1406 128.435 37.0626L127.485 33.3365H125.892L121.808 35.7076V37.0103H122.861C123.349 37.0103 123.76 37.1406 124.043 37.4014C124.325 37.6619 124.479 38.0527 124.479 38.5997V55.0409C124.479 55.5099 124.325 55.9007 124.043 56.1874C123.76 56.4739 123.375 56.6303 122.912 56.6303H121.885V58.5323H131.287V56.6303H130.259C129.797 56.6303 129.411 56.4739 129.129 56.1874C128.846 55.9007 128.692 55.5099 128.692 55.0409V44.1497C128.692 42.7687 129 41.3878 129.566 40.0327C130.156 38.7041 131.03 37.5837 132.186 36.7238C133.342 35.864 134.729 35.447 136.322 35.447C138.12 35.447 139.481 36.0202 140.329 37.1667C141.177 38.3133 141.614 39.7984 141.614 41.5701V55.015C141.614 55.4837 141.459 55.8746 141.177 56.1613C140.894 56.448 140.509 56.6041 140.047 56.6041H139.019V58.5062H148.421V56.6041H147.394C147.008 56.6564 146.648 56.5 146.34 56.2133Z" fill="white"/>
<path d="M232.24 25.1771C229.641 23.7765 226.736 23.0503 223.602 23.0503H211.372V24.9437H212.57C213.028 24.9437 213.436 25.1253 213.844 25.5402C214.226 25.9293 214.43 26.3703 214.43 26.837V54.7456C214.43 55.2123 214.226 55.6533 213.844 56.0423C213.461 56.4314 213.028 56.6388 212.57 56.6388H211.372V58.5323H223.602C226.736 58.5323 229.641 57.8061 232.24 56.4055C234.838 55.0048 236.953 52.9298 238.482 50.2844C240.011 47.6388 240.8 44.4485 240.8 40.8172C240.8 37.1861 240.011 34.0217 238.482 31.3502C236.928 28.6528 234.838 26.6037 232.24 25.1771ZM235.883 40.7654C235.883 44.0854 235.297 46.8864 234.15 49.143C233.004 51.3996 231.475 53.0854 229.589 54.175C227.704 55.2643 225.615 55.809 223.373 55.809H220.901C220.443 55.809 220.035 55.6274 219.627 55.2123C219.245 54.8233 219.041 54.3825 219.041 53.9155V27.5894C219.041 27.1224 219.22 26.7075 219.627 26.2924C220.009 25.9034 220.443 25.6959 220.901 25.6959H223.373C225.615 25.6959 227.704 26.2406 229.589 27.3299C231.475 28.4192 233.004 30.1053 234.15 32.3616C235.297 34.6441 235.883 37.4713 235.883 40.7654Z" fill="white"/>
<path d="M269.709 42.6589C268.578 41.336 266.395 40.2207 263.829 39.624C267.373 37.8344 269.195 35.3185 269.195 32.0765C269.195 30.3127 268.734 28.7305 267.808 27.3817C266.884 26.0331 265.574 24.9437 263.905 24.1915C262.234 23.4393 260.282 23.0503 258.073 23.0503H244.23V24.9437H245.334C245.796 24.9437 246.207 25.1253 246.618 25.5402C247.004 25.9293 247.209 26.3703 247.209 26.837V54.7456C247.209 55.2123 247.004 55.6533 246.618 56.0423C246.233 56.4314 245.796 56.6388 245.334 56.6388H244.127V58.5323H259.153C261.438 58.5323 263.57 58.1433 265.497 57.365C267.424 56.587 268.964 55.4459 270.07 53.9414C271.198 52.4372 271.764 50.5955 271.764 48.4686C271.738 46.1861 271.07 44.2408 269.709 42.6589ZM252.475 55.2382C252.089 54.8492 251.884 54.4084 251.884 53.9414V41.4137H259.025C261.541 41.4137 263.468 42.0622 264.804 43.359C266.139 44.656 266.807 46.3418 266.807 48.4168C266.807 49.6618 266.498 50.8809 265.935 51.9961C265.343 53.1375 264.468 54.0453 263.289 54.7456C262.132 55.4459 260.694 55.809 259.025 55.809H253.759C253.297 55.809 252.886 55.6274 252.475 55.2382ZM251.91 38.7421V27.6153C251.91 27.1483 252.089 26.7334 252.5 26.3183C252.886 25.9293 253.322 25.7218 253.785 25.7218H257.175C259.614 25.7218 261.413 26.3444 262.544 27.5373C263.672 28.7564 264.238 30.3127 264.238 32.2321C264.238 34.2033 263.698 35.7855 262.646 36.9784C261.592 38.1457 260 38.7421 257.894 38.7421H251.91Z" fill="white"/>
<path d="M110.548 34.2875C108.585 33.2018 106.393 32.6331 104.022 32.6331C101.652 32.6331 99.4345 33.1759 97.4973 34.2875C95.5346 35.3729 93.9797 36.9497 92.8328 38.9401C91.6859 40.9304 91.0996 43.2569 91.0996 45.8417C91.0996 48.4264 91.6859 50.753 92.8328 52.7433C93.9797 54.7337 95.5346 56.3104 97.4973 57.3961C99.4601 58.4816 101.652 59.0503 104.022 59.0503C106.393 59.0503 108.61 58.5075 110.548 57.3961C112.51 56.3104 114.065 54.7337 115.212 52.7433C116.359 50.753 116.945 48.4264 116.945 45.8417C116.945 43.2569 116.359 40.9304 115.212 38.9401C114.065 36.9497 112.51 35.3729 110.548 34.2875ZM112.434 45.8417C112.434 49.0211 111.669 51.6058 110.14 53.467C108.636 55.3281 106.571 56.2845 104.022 56.2845C101.474 56.2845 99.4089 55.3281 97.9052 53.467C96.3757 51.6058 95.6111 49.0211 95.6111 45.8417C95.6111 42.6623 96.3757 40.0775 97.9052 38.2164C99.4089 36.3553 101.474 35.3988 104.022 35.3988C106.571 35.3988 108.636 36.3553 110.14 38.2164C111.669 40.0775 112.434 42.6623 112.434 45.8417Z" fill="white"/>
<path d="M200.88 34.2875C198.917 33.2018 196.725 32.6331 194.355 32.6331C191.984 32.6331 189.767 33.1759 187.829 34.2875C185.867 35.3729 184.312 36.9497 183.165 38.9401C182.018 40.9304 181.432 43.2569 181.432 45.8417C181.432 48.4264 182.018 50.753 183.165 52.7433C184.312 54.7337 185.867 56.3104 187.829 57.3961C189.792 58.4816 191.984 59.0503 194.355 59.0503C196.725 59.0503 198.943 58.5075 200.88 57.3961C202.842 56.3104 204.397 54.7337 205.544 52.7433C206.691 50.753 207.277 48.4264 207.277 45.8417C207.277 43.2569 206.691 40.9304 205.544 38.9401C204.397 36.9497 202.817 35.3729 200.88 34.2875ZM202.766 45.8417C202.766 49.0211 202.001 51.6058 200.472 53.467C198.968 55.3281 196.903 56.2845 194.355 56.2845C191.806 56.2845 189.741 55.3281 188.237 53.467C186.708 51.6058 185.943 49.0211 185.943 45.8417C185.943 42.6364 186.708 40.0775 188.237 38.2164C189.741 36.3553 191.806 35.3988 194.355 35.3988C196.903 35.3988 198.968 36.3553 200.472 38.2164C201.976 40.0775 202.766 42.6623 202.766 45.8417Z" fill="white"/>
<path d="M164.451 32.6331C162.397 32.6331 160.523 33.0744 158.829 33.9573C157.135 34.8402 155.8 36.0349 154.85 37.5669C153.9 39.0729 153.412 40.761 153.412 42.5527C153.412 44.1626 153.772 45.6428 154.516 46.9673C155.235 48.2397 156.21 49.3042 157.443 50.1871L153.772 55.225C153.31 55.8481 153.258 56.679 153.592 57.3542C153.951 58.0553 154.619 58.471 155.389 58.471H156.442C155.415 59.1721 154.593 60.0029 154.028 60.9897C153.361 62.1062 153.027 63.2748 153.027 64.4692C153.027 66.7025 154.003 68.5463 155.928 69.9226C157.828 71.2989 160.497 72 163.86 72C166.196 72 168.429 71.6104 170.457 70.8573C172.511 70.1044 174.179 68.9876 175.412 67.5336C176.67 66.0794 177.311 64.3136 177.311 62.288C177.311 60.1588 176.541 58.6525 174.744 57.1985C173.204 55.9779 170.791 55.3289 167.788 55.3289H157.52C157.494 55.3289 157.468 55.3027 157.468 55.3027C157.468 55.3027 157.443 55.2509 157.468 55.225L160.138 51.5895C160.857 51.927 161.524 52.1347 162.115 52.2645C162.73 52.3945 163.424 52.4463 164.194 52.4463C166.35 52.4463 168.301 52.0049 169.995 51.122C171.69 50.2391 173.05 49.0447 174.026 47.5125C175.001 46.0064 175.489 44.3186 175.489 42.5268C175.489 40.6051 174.565 37.0994 172.049 35.3077C172.049 35.2818 172.075 35.2818 172.075 35.2818L177.594 35.9049V33.3342H168.763C167.377 32.8928 165.939 32.6331 164.451 32.6331ZM167.531 48.8887C166.555 49.408 165.503 49.6937 164.451 49.6937C162.731 49.6937 161.216 49.0706 159.933 47.8502C158.649 46.6295 158.007 44.8378 158.007 42.5527C158.007 40.2676 158.649 38.4757 159.933 37.2553C161.216 36.0349 162.731 35.4115 164.451 35.4115C165.529 35.4115 166.555 35.6713 167.531 36.2165C168.506 36.736 169.302 37.541 169.944 38.6057C170.56 39.6704 170.894 40.9946 170.894 42.5527C170.894 44.1367 170.586 45.461 169.944 46.4998C169.328 47.5645 168.506 48.3695 167.531 48.8887ZM160.574 58.4448H167.531C169.456 58.4448 170.688 58.8343 171.51 59.6654C172.331 60.4963 172.742 61.6128 172.742 62.9114C172.742 64.807 171.998 66.3651 170.509 67.5336C169.02 68.7022 167.018 69.2994 164.553 69.2994C162.397 69.2994 160.6 68.8061 159.291 67.8711C157.982 66.9364 157.314 65.5081 157.314 63.6904C157.314 62.5478 157.622 61.483 158.238 60.5483C158.854 59.6134 159.599 58.9382 160.574 58.4448Z" fill="white"/>
<path d="M276.972 58.0991C276.465 57.8187 276.084 57.4107 275.779 56.9264C275.5 56.4167 275.347 55.8814 275.347 55.295C275.347 54.7087 275.5 54.1479 275.779 53.6636C276.058 53.1537 276.465 52.7714 276.972 52.4909C277.481 52.2107 278.039 52.0576 278.673 52.0576C279.308 52.0576 279.866 52.2107 280.375 52.4909C280.882 52.7714 281.263 53.1793 281.568 53.6636C281.847 54.1733 282 54.7087 282 55.295C282 55.8814 281.847 56.4421 281.568 56.9264C281.289 57.4364 280.882 57.8187 280.375 58.0991C279.866 58.3794 279.308 58.5324 278.673 58.5324C278.064 58.5324 277.481 58.405 276.972 58.0991ZM280.096 57.7423C280.526 57.5128 280.833 57.1559 281.086 56.748C281.314 56.3147 281.442 55.8304 281.442 55.295C281.442 54.7597 281.314 54.2754 281.086 53.8421C280.856 53.4088 280.526 53.0773 280.096 52.8478C279.664 52.6183 279.206 52.4909 278.673 52.4909C278.141 52.4909 277.683 52.6183 277.251 52.8478C276.821 53.0773 276.514 53.4342 276.26 53.8421C276.032 54.2754 275.905 54.7597 275.905 55.295C275.905 55.8304 276.032 56.3147 276.26 56.748C276.491 57.1813 276.821 57.5128 277.251 57.7423C277.683 57.9717 278.141 58.0991 278.673 58.0991C279.206 58.0991 279.689 57.9717 280.096 57.7423ZM277.302 56.85V56.6206L277.353 56.5952H277.506C277.555 56.5952 277.606 56.5695 277.632 56.5441C277.683 56.4931 277.683 56.4677 277.683 56.4167V54.0459C277.683 53.9949 277.657 53.9441 277.632 53.9185C277.581 53.8675 277.555 53.8675 277.506 53.8675H277.353L277.302 53.8421V53.6126L277.353 53.5872H278.673C279.055 53.5872 279.334 53.6636 279.561 53.8421C279.792 54.0205 279.891 54.25 279.891 54.5559C279.891 54.7853 279.817 55.0145 279.638 55.1676C279.462 55.346 279.257 55.4481 279.003 55.4735L279.308 55.5755L279.891 56.5185C279.943 56.5952 279.994 56.6206 280.071 56.6206H280.222L280.247 56.6462V56.8754L280.222 56.901H279.436L279.385 56.8754L278.571 55.4989H278.369V56.4167C278.369 56.4677 278.394 56.5185 278.42 56.5441C278.471 56.5952 278.497 56.5952 278.545 56.5952H278.699L278.75 56.6206V56.85L278.699 56.8754H277.353L277.302 56.85ZM278.597 55.1676C278.801 55.1676 278.978 55.1166 279.08 54.9892C279.18 54.8871 279.257 54.7087 279.257 54.5048C279.257 54.3008 279.206 54.1479 279.106 54.0205C279.003 53.8931 278.85 53.8421 278.673 53.8421H278.571C278.52 53.8421 278.471 53.8675 278.446 53.8931C278.394 53.9439 278.394 53.9695 278.394 54.0205V55.1676H278.597Z" fill="white"/>
</g>
<defs>
<clipPath id="clip0_4111_192">
<rect width="282" height="72" fill="white"/>
</clipPath>
</defs>
</svg>
