<svg width="156" height="110" viewBox="0 0 156 110" fill="none" xmlns="http://www.w3.org/2000/svg">
<mask id="mask0_4108_58" style="mask-type:luminance" maskUnits="userSpaceOnUse" x="0" y="0" width="156" height="110">
<path d="M0.327148 0.934082H155.017V109.198H0.327148V0.934082Z" fill="white"/>
</mask>
<g mask="url(#mask0_4108_58)">
<path fill-rule="evenodd" clip-rule="evenodd" d="M64.6785 12.7452C69.6682 7.54689 76.6157 4.32125 84.2989 4.32125C94.5119 4.32125 103.424 10.0164 108.168 18.4722C112.413 16.5755 117.011 15.5979 121.66 15.6036C140.081 15.6036 155.016 30.6681 155.016 49.2522C155.016 67.8363 140.081 82.9014 121.66 82.9014C119.41 82.9014 117.214 82.6751 115.089 82.2464C110.911 89.6988 102.946 94.7351 93.807 94.7351C90.1104 94.7402 86.4616 93.9004 83.1392 92.2798C78.9039 102.245 69.0326 109.232 57.5314 109.232C45.5515 109.232 35.3414 101.653 31.425 91.0229C29.6795 91.3912 27.9003 91.5764 26.1164 91.5754C11.8535 91.5754 0.291992 79.8929 0.291992 65.4821C0.291992 55.8234 5.48575 47.3909 13.2053 42.8799C11.5698 39.1138 10.7281 35.0509 10.733 30.945C10.733 14.3705 24.1875 0.933594 40.7841 0.933594C50.5281 0.933594 59.188 5.56568 64.6785 12.7452Z" fill="white"/>
</g>
<path fill-rule="evenodd" clip-rule="evenodd" d="M22.7041 57.094C22.6069 57.3476 22.7388 57.4004 22.7701 57.4454C23.0606 57.6557 23.3556 57.8081 23.6535 57.9792C25.2311 58.8143 26.7222 59.0593 28.2799 59.0593C31.4538 59.0593 33.4253 57.372 33.4253 54.6546V54.6012C33.4253 52.0884 31.1997 51.1754 29.1139 50.5165L28.8416 50.4284C27.2685 49.9179 25.911 49.4762 25.911 48.4398V48.387C25.911 47.4995 26.7046 46.8475 27.9343 46.8475C29.3015 46.8475 30.9217 47.3017 31.9666 47.8787C31.9666 47.8787 32.2747 48.0777 32.3867 47.7804C32.4475 47.6195 32.9757 46.1971 33.0319 46.0431C33.0922 45.8765 32.9865 45.7509 32.8779 45.6861C31.6846 44.9589 30.0365 44.4644 28.3305 44.4644L28.0138 44.4655C25.1088 44.4655 23.0804 46.2221 23.0804 48.736V48.79C23.0804 51.4392 25.318 52.3005 27.4141 52.8991L27.7506 53.0037C29.277 53.4721 30.5954 53.8769 30.5954 54.9508V55.0042C30.5954 55.9877 29.7387 56.7182 28.3589 56.7182C27.824 56.7182 26.1162 56.7092 24.2709 55.542C24.0475 55.4118 23.9201 55.318 23.7479 55.2129C23.6569 55.1577 23.4295 55.0582 23.3306 55.3561L22.7041 57.094ZM69.1671 57.094C69.0699 57.3476 69.2018 57.4004 69.2342 57.4454C69.5236 57.6557 69.8192 57.8081 70.1165 57.9792C71.6947 58.8143 73.1858 59.0593 74.7429 59.0593C77.9168 59.0593 79.8889 57.372 79.8889 54.6546V54.6012C79.8889 52.0884 77.6638 51.1754 75.5775 50.5165L75.3052 50.4284C73.7321 49.9179 72.374 49.4762 72.374 48.4398V48.387C72.374 47.4995 73.1682 46.8475 74.3984 46.8475C75.7651 46.8475 77.3847 47.3017 78.4296 47.8787C78.4296 47.8787 78.7377 48.0777 78.8503 47.7804C78.9106 47.6195 79.4393 46.1971 79.495 46.0431C79.5558 45.8765 79.4495 45.7509 79.3415 45.6861C78.1476 44.9589 76.5001 44.4644 74.7941 44.4644L74.4769 44.4655C71.5724 44.4655 69.544 46.2221 69.544 48.736V48.79C69.544 51.4392 71.7811 52.3005 73.8777 52.8991L74.2136 53.0037C75.7406 53.4721 77.059 53.8769 77.059 54.9508V55.0042C77.059 55.9877 76.2017 56.7182 74.8231 56.7182C74.287 56.7182 72.5792 56.7092 70.7345 55.542C70.511 55.4118 70.3803 55.322 70.2109 55.2129C70.1535 55.1765 69.8857 55.0719 69.7942 55.3561L69.1671 57.094ZM100.886 51.7706C100.886 53.3056 100.6 54.5176 100.037 55.3721C99.4775 56.2191 98.6333 56.6313 97.456 56.6313C96.2786 56.6313 95.439 56.2197 94.8887 55.3732C94.3332 54.5182 94.0513 53.3056 94.0513 51.7706C94.0513 50.2368 94.3332 49.0288 94.8887 48.1829C95.439 47.3443 96.2786 46.9373 97.456 46.9373C98.6333 46.9373 99.4775 47.3449 100.037 48.1834C100.601 49.0288 100.886 50.2368 100.886 51.7706ZM103.537 48.9242C103.276 48.0436 102.87 47.2687 102.331 46.6224C101.79 45.9743 101.106 45.453 100.296 45.0755C99.4861 44.6974 98.531 44.5059 97.456 44.5059C96.3809 44.5059 95.4253 44.6974 94.6152 45.0755C93.8057 45.453 93.1212 45.9743 92.5806 46.6235C92.0416 47.271 91.6352 48.0447 91.3754 48.9242C91.1167 49.798 90.9854 50.7559 90.9854 51.7706C90.9854 52.786 91.1167 53.7445 91.3754 54.6171C91.6352 55.496 92.0405 56.2703 92.5811 56.9189C93.1218 57.5681 93.8079 58.0849 94.6163 58.4533C95.427 58.8217 96.3821 59.0093 97.456 59.0093C98.5304 59.0093 99.4844 58.8217 100.294 58.4533C101.104 58.0849 101.789 57.5681 102.331 56.9189C102.87 56.2726 103.276 55.4971 103.537 54.6171C103.795 53.7427 103.926 52.7848 103.926 51.7706C103.926 50.757 103.795 49.7985 103.537 48.9242ZM125.291 56.2202C125.204 55.9627 124.953 56.0599 124.953 56.0599C124.568 56.2072 124.159 56.3436 123.721 56.4118C123.28 56.4812 122.791 56.5159 122.269 56.5159C120.988 56.5159 119.968 56.1344 119.24 55.3806C118.508 54.6262 118.097 53.4073 118.101 51.7587C118.105 50.2602 118.468 49.1311 119.118 48.2704C119.763 47.4154 120.748 46.9765 122.057 46.9765C123.15 46.9765 123.984 47.1033 124.858 47.3773C124.858 47.3773 125.065 47.4677 125.165 47.1943C125.397 46.5502 125.569 46.092 125.817 45.3842C125.887 45.1824 125.715 45.0971 125.652 45.0726C125.308 44.9385 124.497 44.7185 123.885 44.6258C123.312 44.5383 122.643 44.4928 121.897 44.4928C120.784 44.4928 119.792 44.6832 118.944 45.0607C118.097 45.4376 117.379 45.9584 116.81 46.6059C116.241 47.2545 115.808 48.0294 115.522 48.9083C115.234 49.7826 115.09 50.7422 115.09 51.7598C115.09 53.9571 115.682 55.7325 116.852 57.0332C118.025 58.3385 119.785 59.0013 122.083 59.0013C123.44 59.0013 124.832 58.7267 125.835 58.3322C125.835 58.3322 126.026 58.2401 125.943 58.0173L125.291 56.2202ZM129.927 50.2988C130.053 49.4455 130.287 48.7366 130.651 48.1829C131.201 47.3443 132.038 46.8822 133.215 46.8822C134.393 46.8822 135.169 47.3449 135.729 48.1834C136.098 48.7377 136.26 49.4762 136.323 50.2999L129.927 50.2988ZM138.846 48.4245C138.62 47.5752 138.064 46.7173 137.699 46.325C137.122 45.7031 136.556 45.2676 135.995 45.0272C135.183 44.682 134.31 44.5047 133.427 44.5059C132.308 44.5059 131.291 44.6952 130.466 45.0817C129.64 45.4695 128.946 45.9993 128.402 46.6576C127.857 47.3154 127.448 48.0982 127.187 48.9862C126.926 49.869 126.794 50.8315 126.794 51.848C126.794 52.8815 126.931 53.8451 127.2 54.7115C127.472 55.5852 127.91 56.3521 128.5 56.9906C129.089 57.6313 129.848 58.1338 130.755 58.484C131.657 58.8336 132.753 59.015 134.01 59.011C136.601 59.0025 137.964 58.4249 138.527 58.1139C138.626 58.0582 138.72 57.9621 138.603 57.6853L138.016 56.0434C137.926 55.7984 137.679 55.8871 137.679 55.8871C137.036 56.127 136.126 56.5551 133.997 56.5505C132.607 56.5483 131.576 56.1372 130.929 55.4954C130.267 54.8388 129.941 53.8746 129.886 52.5125L138.853 52.5193C138.853 52.5193 139.089 52.5171 139.114 52.2863C139.123 52.1908 139.421 50.4443 138.846 48.4245ZM58.1037 50.2988C58.2304 49.4455 58.4647 48.7366 58.8285 48.1829C59.3788 47.3443 60.2145 46.8822 61.393 46.8822C62.5709 46.8822 63.3469 47.3449 63.9063 48.1834C64.2752 48.7377 64.4367 49.4762 64.4998 50.2999L58.1037 50.2988ZM67.0228 48.4245C66.7976 47.5752 66.2411 46.7173 65.8761 46.325C65.2991 45.7031 64.7346 45.2676 64.1729 45.0272C63.3608 44.6822 62.4874 44.5049 61.605 44.5059C60.4857 44.5059 59.4686 44.6952 58.6437 45.0817C57.8177 45.4695 57.1236 45.9993 56.5784 46.6576C56.0343 47.3154 55.6256 48.0982 55.3635 48.9862C55.1026 49.869 54.9713 50.8315 54.9713 51.848C54.9713 52.8815 55.1071 53.8451 55.3783 54.7115C55.65 55.5852 56.0878 56.3521 56.6767 56.9906C57.2668 57.6313 58.0252 58.1338 58.932 58.484C59.8347 58.8336 60.9297 59.015 62.1877 59.011C64.7784 59.0025 66.1416 58.4249 66.7044 58.1139C66.8033 58.0582 66.8977 57.9621 66.78 57.6853L66.1939 56.0434C66.1035 55.7984 65.8557 55.8871 65.8557 55.8871C65.2133 56.127 64.3031 56.5551 62.1741 56.5505C60.7841 56.5483 59.7534 56.1372 59.1059 55.4954C58.4442 54.8388 58.1184 53.8746 58.0633 52.5125L67.0302 52.5193C67.0302 52.5193 67.2667 52.5171 67.2911 52.2863C67.3008 52.1908 67.5987 50.4443 67.0228 48.4245ZM38.7197 56.1714C38.3678 55.8905 38.3189 55.8217 38.2024 55.6392C38.0245 55.3647 37.9335 54.9735 37.9335 54.4727C37.9335 53.6853 38.195 53.118 38.7339 52.7371C38.7282 52.7382 39.5071 52.0651 41.3348 52.089C42.1502 52.1035 42.9636 52.1728 43.7697 52.2965V56.3726H43.7708C43.7708 56.3726 42.631 56.6176 41.3479 56.6949C39.5241 56.8047 38.714 56.1697 38.7197 56.1714ZM42.2882 49.869C41.9243 49.8423 41.453 49.8292 40.888 49.8292C40.1199 49.8292 39.3769 49.9247 38.6794 50.1123C37.979 50.3011 37.3491 50.5933 36.8073 50.9804C36.2659 51.3672 35.8206 51.8733 35.506 52.4597C35.1882 53.0515 35.0262 53.7467 35.0262 54.5261C35.0262 55.3215 35.1644 56.0105 35.4372 56.5733C35.7042 57.1313 36.1061 57.6139 36.6066 57.9775C37.1052 58.3402 37.7203 58.6062 38.4338 58.7688C39.1381 58.9297 39.9363 59.011 40.8084 59.011C41.7293 59.011 42.6452 58.9337 43.5326 58.7842C44.2885 58.6539 45.0415 58.5076 45.7912 58.3453C46.0902 58.2765 46.42 58.1861 46.42 58.1861C46.6417 58.1298 46.6246 57.8928 46.6246 57.8928L46.6195 49.6917C46.6195 47.8929 46.1397 46.5604 45.1943 45.7327C44.2534 44.9089 42.868 44.4928 41.0756 44.4928C40.4025 44.4928 39.3212 44.5837 38.672 44.7139C38.672 44.7139 36.7141 45.0937 35.908 45.7253C35.908 45.7253 35.7306 45.8344 35.8272 46.0817L36.4622 47.7872C36.5413 48.0083 36.7567 47.9327 36.7567 47.9327C36.7567 47.9327 36.8244 47.906 36.904 47.8588C38.6288 46.9208 40.8112 46.9487 40.8112 46.9487C41.7799 46.9487 42.5264 47.1448 43.0278 47.5285C43.5172 47.9043 43.7657 48.47 43.7657 49.6655V50.0447C42.9965 49.9333 42.2882 49.869 42.2882 49.869ZM114.621 45.2489C114.633 45.2189 114.64 45.1866 114.64 45.154C114.641 45.1213 114.634 45.089 114.622 45.0589C114.609 45.0287 114.591 45.0014 114.567 44.9786C114.544 44.9558 114.516 44.9379 114.486 44.926C114.333 44.868 113.571 44.7071 112.983 44.6707C111.855 44.6002 111.231 44.7901 110.67 45.0425C110.114 45.2932 109.498 45.6986 109.155 46.1607L109.154 45.067C109.154 44.9169 109.048 44.7958 108.896 44.7958H106.597C106.448 44.7958 106.34 44.9169 106.34 45.067V58.4448C106.341 58.5169 106.369 58.5861 106.42 58.6371C106.471 58.6882 106.541 58.7169 106.613 58.7171H108.969C109.041 58.7169 109.11 58.6882 109.161 58.6371C109.212 58.5861 109.241 58.5169 109.241 58.4448V51.7621C109.241 50.8645 109.34 49.9702 109.537 49.408C109.731 48.8514 109.996 48.408 110.323 48.0891C110.634 47.7813 111.013 47.5527 111.431 47.4228C111.822 47.3106 112.227 47.2535 112.634 47.2534C113.103 47.2534 113.619 47.3739 113.619 47.3739C113.792 47.3932 113.888 47.2875 113.946 47.1317C114.1 46.7218 114.537 45.4933 114.621 45.2489Z" fill="black"/>
<path fill-rule="evenodd" clip-rule="evenodd" d="M92.5064 39.0497C92.2154 38.9618 91.9195 38.8916 91.6201 38.8394C91.2174 38.7722 90.8095 38.7406 90.4012 38.745C88.7793 38.745 87.5008 39.2032 86.6031 40.1083C85.7117 41.0065 85.1051 42.3749 84.801 44.1753L84.6913 44.783H82.6555C82.6555 44.783 82.4071 44.7728 82.3548 45.044L82.0205 46.9086C81.9972 47.0871 82.0739 47.1985 82.3127 47.1974H84.2945L82.2837 58.4212C82.1262 59.3251 81.946 60.0687 81.7465 60.6321C81.5498 61.1881 81.3576 61.6048 81.1211 61.9072C80.892 62.2 80.6749 62.4154 80.3002 62.5411C79.991 62.6451 79.6351 62.6929 79.2451 62.6929C79.0279 62.6929 78.7391 62.6565 78.5259 62.6138C78.3128 62.5718 78.2019 62.524 78.0422 62.4569C78.0422 62.4569 77.8097 62.3682 77.7181 62.6013C77.6437 62.7918 77.1155 64.2443 77.053 64.4239C76.9893 64.6013 77.0786 64.7411 77.1911 64.7815C77.4549 64.8759 77.651 64.9361 78.0103 65.0208C78.5095 65.1385 78.9302 65.1459 79.3241 65.1459C80.1496 65.1459 80.9017 65.0299 81.5253 64.8048C82.1529 64.578 82.6993 64.1829 83.1825 63.6479C83.7049 63.0709 84.0335 62.4666 84.3479 61.6423C84.6589 60.8254 84.9238 59.8112 85.1358 58.6293L87.1563 47.1974H90.1102C90.1102 47.1974 90.3592 47.2065 90.4109 46.9365L90.7452 45.0718C90.7685 44.8933 90.6923 44.7819 90.4524 44.783H87.5855C87.5997 44.7182 87.7299 43.7097 88.059 42.7603C88.1995 42.355 88.4638 42.0281 88.6878 41.8035C88.8969 41.5897 89.1545 41.4294 89.4388 41.3362C89.7503 41.2399 90.0751 41.1931 90.4012 41.1975C90.6713 41.1975 90.9362 41.2299 91.138 41.272C91.416 41.3311 91.524 41.3624 91.5968 41.384C91.889 41.4732 91.9282 41.3868 91.9856 41.2453L92.6712 39.3624C92.7417 39.16 92.57 39.0748 92.5064 39.0497ZM52.4423 58.4451C52.4423 58.5951 52.3354 58.7174 52.1853 58.7174H49.8073C49.6567 58.7174 49.5498 58.5951 49.5498 58.4451V39.305C49.5498 39.1555 49.6567 39.0344 49.8073 39.0344H52.1853C52.3354 39.0344 52.4423 39.1555 52.4423 39.305V58.4451Z" fill="black"/>
</svg>
